<svg id="Layer_1" xmlns="http://www.w3.org/2000/svg" viewBox="0 0 232.56 73.27"><defs><clipPath id="clippath"><path class="cls-1" d="M185.19 42.05c-1 11.4 7.44 21.46 18.84 22.45 11.4 1 21.45-7.44 22.45-18.84 1-11.4-7.44-21.46-18.84-22.45-.61-.05-1.23-.08-1.83-.08-10.63 0-19.68 8.13-20.62 18.92"/></clipPath><style>.cls-1,.cls-5,.cls-8{fill:none}.cls-10{fill:#007a82}.cls-11,.cls-17{fill:#8a9ba5}.cls-5,.cls-8{stroke:#8a9ba5;stroke-width:.47px}.cls-8{stroke-linecap:round;stroke-linejoin:round}.cls-17{font-family:Times-Roman,Times;font-size:6.08px}.cls-8{stroke-dasharray:0 0 0 1.43}</style></defs><path class="cls-10" d="M177.44 18.79c1.76 0 3.14 1.38 3.14 3.18v5.36c0 1.49-1.13 3.15-3.15 3.15h-3.02c-.99 0-2.09.85-2.09 2.11v16.38c0 1.77-1.44 3.21-3.21 3.21h-5.3c-1.77 0-3.21-1.44-3.21-3.21V32.59c0-1.27-1.1-2.11-2.09-2.11h-3.02c-2.02 0-3.15-1.67-3.15-3.15v-5.36c0-1.79 1.38-3.18 3.14-3.18h21.98ZM138.13 18.79h5.29c1.77 0 3.21 1.44 3.21 3.21v44.38c0 1.77-1.44 3.21-3.21 3.21h-5.29c-1.77 0-3.21-1.44-3.21-3.21V21.99c0-1.77 1.44-3.21 3.21-3.21M117.18 39.36c0-1.06-.83-2.09-2.09-2.09h-9.86c-1.16 0-2.06.9-2.06 2.06v27.03c0 1.77-1.44 3.21-3.21 3.21h-5.29c-1.77 0-3.21-1.44-3.21-3.21V21.99c0-1.77 1.44-3.21 3.21-3.21h5.29c1.77 0 3.21 1.44 3.21 3.21v4.48c0 1.16.89 2.1 2.06 2.1h9.86c1.26 0 2.09-1.02 2.09-2.09V4.59c0-1.77 1.44-3.21 3.21-3.21h5.29c1.77 0 3.21 1.44 3.21 3.21v44.38c0 1.77-1.46 3.21-3.23 3.21h-5.29c-1.77 0-3.19-1.44-3.19-3.21v-9.61ZM138.1 1.4h5.29c1.77 0 3.21 1.44 3.21 3.22V9.9c0 1.78-1.44 3.22-3.21 3.22h-5.29c-1.77 0-3.21-1.44-3.21-3.22V4.62c0-1.78 1.44-3.22 3.21-3.22M163.78 57.89h5.29c1.77 0 3.21 1.44 3.21 3.22v5.28c0 1.78-1.44 3.22-3.21 3.22h-5.29c-1.77 0-3.21-1.44-3.21-3.22v-5.28c0-1.78 1.44-3.22 3.21-3.22M120.36 57.89h5.29c1.77 0 3.21 1.44 3.21 3.22v5.28c0 1.78-1.44 3.22-3.21 3.22h-5.29c-1.77 0-3.21-1.44-3.21-3.22v-5.28c0-1.78 1.44-3.22 3.21-3.22"/><path class="cls-11" d="M214.35 51.91c-.16-.08-.33-.13-.52-.14-.39-.03-.71.06-.98.29-.27.23-.42.53-.45.92-.03.37.07.67.3.89.17.16.49.32.96.47.43.14.72.26.87.34.14.09.25.18.31.3.06.11.08.24.07.38-.02.25-.13.45-.33.61-.2.16-.45.22-.74.2-.36-.03-.68-.2-.94-.49-.27-.3-.42-.68-.46-1.16l-.21-.02-.15 1.71.21.02.37-.38c.31.32.69.5 1.15.54.42.04.78-.06 1.07-.3.29-.24.45-.56.49-.95.02-.22-.01-.42-.1-.59-.08-.17-.22-.32-.41-.45-.19-.13-.52-.26-1-.41-.34-.11-.57-.2-.69-.27a.69.69 0 0 1-.26-.28.681.681 0 0 1-.06-.38c.02-.23.12-.41.3-.55.18-.14.4-.2.66-.18.31.03.58.16.8.41.22.25.37.62.45 1.13l.2.02.12-1.61-.22-.02-.3.36c-.17-.17-.33-.29-.49-.37m-5.25-.02c0-.08.04-.13.1-.16.06-.03.21-.03.44-.01.36.03.59.08.71.14.12.06.21.16.27.3.06.14.08.33.06.56-.03.34-.15.56-.36.68-.21.11-.49.16-.84.13l-.52-.05.14-1.58Zm-1.32-.34.43.04c.09 0 .16.03.2.08.04.04.06.1.05.18l-.31 3.52c0 .07-.03.11-.08.15a.33.33 0 0 1-.21.04l-.43-.04-.02.22 2.05.18.02-.22-.42-.04c-.1 0-.17-.03-.22-.08-.04-.03-.05-.09-.04-.16l.15-1.73.36.03c.19.02.35.07.48.15.13.08.22.18.28.29.05.12.09.31.09.58.01.46.03.74.07.86.04.15.11.26.21.35.1.08.22.13.37.14.46.04.74-.27.84-.95l-.2-.02c-.03.23-.08.38-.14.47-.06.09-.12.13-.18.12-.06 0-.11-.05-.16-.12-.06-.1-.11-.28-.15-.55-.05-.37-.11-.62-.16-.74s-.13-.23-.23-.31c-.1-.08-.29-.18-.57-.28.39 0 .68-.05.87-.12.19-.08.34-.18.45-.33.11-.14.17-.31.19-.51.03-.33-.07-.6-.29-.82-.23-.22-.56-.35-1-.39l-2.28-.2-.02.22Zm-1.97 2.34-1.55-.14.96-1.89.59 2.03Zm-2.26.74c-.1.2-.21.33-.31.4-.11.07-.24.09-.41.08l-.02.22 1.6.14.02-.22h-.15c-.17-.03-.3-.07-.39-.15-.08-.08-.12-.16-.11-.26 0-.08.04-.19.11-.33l.25-.52 1.74.15.28.97s.01.07.01.11c0 .06-.03.1-.09.12-.08.03-.21.04-.39.03h-.14l-.02.21 1.76.15.02-.22h-.14c-.2-.03-.32-.12-.37-.29l-1.23-4.17-.2-.02-1.82 3.61Zm-4.34-3.83.36.03c.09 0 .15.03.19.07.04.04.06.1.05.18l-.31 3.49c0 .08-.04.13-.09.17-.05.04-.14.05-.25.04l-.3-.03-.02.22 3.63.32.22-1.63-.21-.02c-.2.94-.66 1.37-1.4 1.31l-.68-.06c-.1 0-.17-.03-.21-.07a.165.165 0 0 1-.05-.15l.15-1.75.35.03c.22.02.39.11.5.26.12.16.16.41.14.74l.21.02.18-2.04-.21-.02c-.04.3-.12.51-.26.65-.14.13-.31.19-.51.17l-.38-.03.14-1.57c0-.08.03-.13.07-.17.04-.03.09-.05.16-.04l.86.07c.28.02.49.14.65.34s.25.54.29 1.02l.2.02.05-1.49-3.49-.31-.02.22Zm-4.73-.41c.19.02.32.05.39.1.08.04.14.11.19.21l1.18 2.25-.12 1.36c0 .07-.04.12-.09.16a.4.4 0 0 1-.24.04l-.4-.03-.02.22 2.02.18.02-.22-.38-.03c-.11-.01-.2-.04-.25-.09-.04-.03-.05-.09-.05-.16l.12-1.39 1.18-1.77c.12-.18.24-.3.35-.35.12-.06.27-.08.46-.06l.02-.22-1.68-.15-.02.22.21.02c.12.01.22.05.28.12.06.07.09.15.08.26 0 .08-.03.15-.07.21l-.93 1.41-.97-1.83s-.03-.09-.03-.14c0-.05.04-.09.09-.11.06-.02.17-.03.35-.01l.21.02.02-.22-1.93-.17-.02.22Z"/><path class="cls-8" d="M205.75 61.12c8.66.05 16.09-6.39 17.21-15.06M223.1 43.93c.05-8.66-6.39-16.09-15.06-17.21M205.91 26.58c-8.67-.05-16.09 6.39-17.21 15.06M188.56 43.77c-.05 8.67 6.39 16.09 15.06 17.21"/><path d="M204.33 61.06h0m-15.7-18.71h0m18.71-15.7h0m15.7 18.71h0" style="stroke-linecap:round;stroke-linejoin:round;stroke-width:.47px;stroke:#8a9ba5;fill:none"/><path class="cls-1" d="M0 0h232.56v73H0z"/><g style="clip-path:url(#clippath)"><path d="M203.96 65.27c11.81 1.03 22.26-7.74 23.3-19.55 1.03-11.81-7.74-22.26-19.55-23.3-11.81-1.03-22.26 7.74-23.3 19.55-1.03 11.81 7.74 22.26 19.55 23.3Z" style="stroke-width:.31px;stroke:#fff;fill:none"/><path d="M204.07 64.03c11.13.97 20.97-7.29 21.95-18.41.97-11.13-7.29-20.97-18.41-21.94-11.13-.97-20.97 7.29-21.95 18.41-.97 11.13 7.29 20.97 18.42 21.95Z" style="stroke:#fff;stroke-width:.94px;fill:none"/></g><path d="M203.96 65.27c11.81 1.03 22.26-7.74 23.3-19.55 1.03-11.81-7.74-22.26-19.55-23.3-11.81-1.03-22.26 7.74-23.3 19.55-1.03 11.81 7.74 22.26 19.55 23.3Z" style="stroke-width:.31px;stroke:#8a9ba5;fill:none"/><path d="M204.07 64.03c11.13.97 20.97-7.29 21.95-18.41.97-11.13-7.29-20.97-18.41-21.94-11.13-.97-20.97 7.29-21.95 18.41-.97 11.13 7.29 20.97 18.42 21.95Z" style="stroke-width:.94px;stroke:#8a9ba5;fill:none"/><path class="cls-11" d="M215.06 36.37c.48 1.01.6 2.93.35 5.76-.24 2.74-.7 4.59-1.39 5.57-.58.82-1.34 1.19-2.28 1.11-.93-.08-1.63-.61-2.1-1.6-.47-.99-.58-2.89-.34-5.69.25-2.87.68-4.74 1.3-5.61.61-.87 1.4-1.26 2.35-1.17.93.08 1.64.63 2.12 1.64m-5.74-.93c-1.22 1.4-1.94 3.36-2.16 5.89-.23 2.66.17 4.74 1.2 6.25.83 1.2 1.93 1.86 3.31 1.98 1.43.12 2.71-.43 3.83-1.68 1.13-1.24 1.8-3.14 2.03-5.69.24-2.74-.16-4.84-1.21-6.29-.84-1.18-1.97-1.83-3.38-1.95-1.44-.13-2.64.37-3.62 1.49m-12.39.79-.53 3.16c-.04.07-.11.15-.21.23-.32.28-.5.59-.53.9-.02.18.02.33.09.43.08.11.19.17.33.18.2.02.38-.05.52-.21.15-.16.26-.49.36-.99.46-.28.91-.48 1.36-.6.45-.12.89-.16 1.32-.12.95.08 1.71.48 2.26 1.18.56.7.77 1.76.65 3.17-.13 1.55-.52 2.64-1.16 3.27-.64.64-1.51.9-2.62.81-.56-.05-1.06-.18-1.48-.4-.42-.22-.73-.47-.92-.77-.19-.3-.28-.56-.26-.79.01-.16.18-.29.51-.38.33-.09.56-.21.69-.38.13-.16.21-.4.24-.71.04-.41-.05-.76-.27-1.03-.22-.28-.52-.43-.9-.47-.39-.03-.72.1-1 .4-.28.3-.44.75-.49 1.34-.09.98.23 1.86.95 2.64s1.71 1.23 2.96 1.33c1.63.14 3-.24 4.12-1.13 1.11-.9 1.74-2.12 1.87-3.65.12-1.38-.26-2.58-1.14-3.6-.88-1.02-2.03-1.6-3.44-1.72a5.5 5.5 0 0 0-1.44.08c-.51.09-1.05.25-1.62.48l.71-4.11c1.15.36 2.14.58 2.99.66.73.06 1.39 0 1.97-.2.58-.2 1.05-.49 1.41-.88.36-.39.55-.71.57-.96 0-.11-.02-.17-.09-.17-.04 0-.12.02-.25.08-.25.12-.62.21-1.1.27-.49.06-1 .07-1.54.02-1.15-.1-2.63-.44-4.42-1.02-.11 1.18-.27 2.4-.48 3.65"/><text class="cls-17" transform="rotate(-20.67 159.802 -525.046) scale(1.03 1)"><tspan x="0" y="0">M</tspan></text><text transform="rotate(-9.58 224.555 -1188.277) scale(1.03 1)" style="font-size:6.08px;font-family:Times-Roman,Times;fill:#8a9ba5"><tspan x="0" y="0">o</tspan></text><text transform="matrix(1.02759 -.07041 .06836 .99766 203.99 20.33)" style="font-size:6.08px;font-family:Times-Roman,Times;fill:#8a9ba5"><tspan x="0" y="0">r</tspan></text><text transform="rotate(1.83 -529.67 6461.437) scale(1.03 1)" style="font-size:6.08px;font-family:Times-Roman,Times;fill:#8a9ba5"><tspan x="0" y="0">e</tspan></text><text transform="matrix(1.0208 .1373 -.1333 .99108 208.85 20.36)" style="font-size:6.08px;font-family:Times-Roman,Times;fill:#8a9ba5"><tspan x="0" y="0"> </tspan></text><text transform="rotate(13.56 18.733 895.14) scale(1.03 1)" style="font-size:6.08px;font-family:Times-Roman,Times;fill:#8a9ba5"><tspan x="0" y="0">t</tspan></text><text transform="rotate(19.51 45.335 627.35) scale(1.03 1)" style="font-size:6.08px;font-family:Times-Roman,Times;fill:#8a9ba5"><tspan x="0" y="0">h</tspan></text><text transform="matrix(.9299 .44294 -.43004 .90281 215.09 21.91)" style="font-size:6.08px;font-family:Times-Roman,Times;fill:#8a9ba5"><tspan x="0" y="0">a</tspan></text><text transform="matrix(.87916 .53664 -.52101 .85355 217.59 23.11)" style="font-size:6.08px;font-family:Times-Roman,Times;fill:#8a9ba5"><tspan x="0" y="0">n</tspan></text><path class="cls-5" d="M192.05 23.87c-5.75 3.97-9.75 10.37-10.4 17.87-.24 2.73-.02 5.39.6 7.91"/><text transform="rotate(65.24 48.322 168.518) scale(1.03 1)" style="font-size:6.08px;font-family:Times-Roman,Times;fill:#8a9ba5"><tspan x="0" y="0">o</tspan></text><text transform="matrix(.51842 .89002 -.8641 .50332 182.45 56.89)" style="font-size:6.08px;font-family:Times-Roman,Times;fill:#8a9ba5"><tspan x="0" y="0">f</tspan></text><text transform="matrix(.56053 .86412 -.83896 .5442 183.53 58.68)" style="font-size:6.08px;font-family:Times-Roman,Times;fill:#8a9ba5"><tspan x="0" y="0"> </tspan></text><text transform="matrix(.679 .77451 -.75195 .65921 184.11 59.78)" style="font-size:6.08px;font-family:Times-Roman,Times;fill:#8a9ba5"><tspan x="0" y="0">A</tspan></text><text transform="rotate(40.36 7.58 286.117) scale(1.03 1)" style="font-size:6.08px;font-family:Times-Roman,Times;fill:#8a9ba5"><tspan x="0" y="0">c</tspan></text><text transform="rotate(34.67 -9.558 335.567) scale(1.03 1)" style="font-size:6.08px;font-family:Times-Roman,Times;fill:#8a9ba5"><tspan x="0" y="0">a</tspan></text><text class="cls-17" transform="rotate(28.92 -33.437 404.559) scale(1.03 1)"><tspan x="0" y="0">d</tspan></text><text transform="matrix(.94728 .40444 -.39266 .91968 194.23 68.11)" style="font-family:Times-Roman,Times;font-size:6.08px;fill:#8a9ba5"><tspan x="0" y="0">e</tspan></text><text transform="matrix(.99773 .2558 -.24835 .96867 196.78 69.24)" style="font-size:6.08px;font-family:Times-Roman,Times;fill:#8a9ba5"><tspan x="0" y="0">m</tspan></text><text transform="matrix(1.0249 .1023 -.09932 .99506 201.52 70.35)" style="font-size:6.08px;font-family:Times-Roman,Times;fill:#8a9ba5"><tspan x="0" y="0">i</tspan></text><text transform="matrix(1.02874 .05085 -.04937 .99878 203.26 70.53)" style="font-size:6.08px;font-family:Times-Roman,Times;fill:#8a9ba5"><tspan x="0" y="0">c</tspan></text><text transform="rotate(-2.85 1522.255 -4106.024) scale(1.03 1)" style="font-size:6.08px;font-family:Times-Roman,Times;fill:#8a9ba5"><tspan x="0" y="0"> </tspan></text><text transform="rotate(-8.47 580.242 -1366.55) scale(1.03 1)" style="font-size:6.08px;font-family:Times-Roman,Times;fill:#8a9ba5"><tspan x="0" y="0">E</tspan></text><text transform="rotate(-16.79 342.688 -681.223) scale(1.03 1)" style="font-size:6.08px;font-family:Times-Roman,Times;fill:#8a9ba5"><tspan x="0" y="0">x</tspan></text><text transform="rotate(-22.27 282.497 -510.086) scale(1.03 1)" style="font-size:6.08px;font-family:Times-Roman,Times;fill:#8a9ba5"><tspan x="0" y="0">c</tspan></text><text transform="matrix(.88766 -.52245 .50724 .8618 216.96 67.96)" style="font-size:6.08px;font-family:Times-Roman,Times;fill:#8a9ba5"><tspan x="0" y="0">e</tspan></text><text transform="rotate(-33.21 221.241 -334.51) scale(1.03 1)" style="font-size:6.08px;font-family:Times-Roman,Times;fill:#8a9ba5"><tspan x="0" y="0">l</tspan></text><text transform="matrix(.80384 -.644 .62524 .78043 220.8 65.58)" style="font-size:6.08px;font-family:Times-Roman,Times;fill:#8a9ba5"><tspan x="0" y="0">l</tspan></text><text transform="rotate(-44.23 190.512 -241.13) scale(1.03 1)" style="font-size:6.08px;font-family:Times-Roman,Times;fill:#8a9ba5"><tspan x="0" y="0">e</tspan></text><text transform="rotate(-49.82 179.547 -210.106) scale(1.03 1)" style="font-size:6.08px;font-family:Times-Roman,Times;fill:#8a9ba5"><tspan x="0" y="0">n</tspan></text><text transform="rotate(-55.46 170.398 -185.078) scale(1.03 1)" style="font-size:6.08px;font-family:Times-Roman,Times;fill:#8a9ba5"><tspan x="0" y="0">c</tspan></text><text transform="rotate(-61.17 162.893 -163.741) scale(1.03 1)" style="font-size:6.08px;font-family:Times-Roman,Times;fill:#8a9ba5"><tspan x="0" y="0">e</tspan></text><path class="cls-5" d="M228.67 52.11c.7-1.94 1.16-4 1.35-6.14.65-7.48-2.16-14.46-7.1-19.37"/><path d="M60.86 28.12v-8.09h-1.19V18h3.44v10.12h-2.25Zm4.85-1.92v-6.17h-1.19V18h3.44v8.2h-2.25Zm9.66-3.48c0 1.76-1.24 3.48-2.89 3.48H69.5v-2.03h2.26c.72 0 1.36-.91 1.36-1.65v-.83c0-.75-.65-1.65-1.36-1.65H69.5v-2.03h2.98c1.66 0 2.89 1.72 2.89 3.48v1.23Zm5.24 3.48v-2.03h1.57V21c0-.67-.34-.97-.91-.97h-1.22l-1.04 6.17h-2.25l1.14-6.17h-1.33V18h5.05c1.7 0 2.81 1.12 2.81 3.04v5.15h-3.82ZM2.97 42.34v-8.09H1.78v-2.03h3.44v10.12H2.97Zm4.85-1.92v-6.17H6.63v-2.03h3.44v8.2H7.82Zm7.6 0h-2.25l2.05-6.17h-3.68v-4.06h2.2v2.03h4.39l-2.72 8.2Zm4.69 0v-6.17h-1.19v-2.03h3.44v8.2h-2.25Zm8.8 0v-5.2c0-.67-.34-.97-.91-.97h-1.57v6.17h-2.25v-8.2h4.17c1.7 0 2.81 1.12 2.81 3.04v5.15h-2.25Zm8.5-3.65v-2.51h-1.19v-2.03h3.44v4.54h-2.25Zm6.46 3.65-.18-2.23h-.1c-.48 1.16-1.17 2.42-2.46 2.47v-2.53c1.19-.2 2.39-1.08 2.39-2.54 0-.44-.01-.89-.03-1.33h-1.87v-2.03h3.97l.28 8.2h-2.01Zm4.54 0v-6.17h-1.19v-2.03h3.44v8.2h-2.25Zm7.6 0h-2.25l2.05-6.17h-3.68v-4.06h2.2v2.03h4.39L56 40.42Zm4.69 0v-6.17h-1.19v-2.03h3.44v8.2H60.7Zm3.72 0v-2.03h1.82v-4.14h-1.61v-2.03h3.86v8.2h-4.07Zm11.49-3.48c0 1.76-1.24 3.48-2.89 3.48h-2.98v-2.03h2.26c.72 0 1.36-.91 1.36-1.65v-.83c0-.75-.65-1.65-1.36-1.65h-2.26v-2.03h2.98c1.66 0 2.89 1.72 2.89 3.48v1.23Zm4.45 3.48h-2.51l-.74-8.2h2.25l.53 6.17h.6c.32 0 .63-.11.91-.28.84-.53 1.14-1.62 1.14-2.64v-.03c0-.73-.25-1.36-.98-1.36-.27 0-.63.09-.84.3v-2.01c.29-.25 1.04-.33 1.38-.33 1.68 0 2.7 1.28 2.7 3.12 0 2.92-1.68 5.26-4.42 5.26ZM13.74 45.83v3.62h3.05v-3.62h1.66v9.43h-1.66v-4.07h-3.05v4.07h-1.66v-9.43h1.66ZM19.78 50.36c.13-.44.32-.82.57-1.14.25-.31.54-.55.89-.73.34-.17.73-.26 1.16-.26s.82.09 1.17.26.65.41.89.73c.25.31.44.69.57 1.14.13.45.2.94.2 1.49s-.07 1.04-.2 1.48-.32.82-.57 1.13-.54.55-.89.72-.74.25-1.17.25-.82-.08-1.16-.25c-.35-.17-.64-.41-.89-.72s-.44-.69-.57-1.13-.2-.93-.2-1.48.07-1.04.2-1.49Zm1.36 2.29c.04.26.11.49.22.7s.24.37.41.5c.17.12.38.19.63.19s.47-.06.64-.19c.17-.12.31-.29.41-.5s.17-.44.22-.7a5.287 5.287 0 0 0 0-1.6c-.04-.26-.11-.5-.22-.7-.1-.2-.24-.37-.41-.5-.17-.13-.39-.19-.64-.19s-.46.06-.63.19c-.17.13-.3.29-.41.5-.1.2-.17.44-.22.7a5.287 5.287 0 0 0 0 1.6ZM27.74 45.83v9.43h-1.5v-9.43h1.5ZM28.96 50.36c.13-.44.32-.82.57-1.14.25-.31.54-.55.89-.73.34-.17.73-.26 1.16-.26s.82.09 1.17.26.65.41.89.73c.25.31.44.69.57 1.14.13.45.2.94.2 1.49s-.07 1.04-.2 1.48-.32.82-.57 1.13-.54.55-.89.72-.74.25-1.17.25-.82-.08-1.16-.25c-.35-.17-.64-.41-.89-.72s-.44-.69-.57-1.13-.2-.93-.2-1.48.07-1.04.2-1.49Zm1.36 2.29c.04.26.11.49.22.7s.24.37.41.5c.17.12.38.19.63.19s.47-.06.64-.19c.17-.12.31-.29.41-.5s.17-.44.22-.7a5.287 5.287 0 0 0 0-1.6c-.04-.26-.11-.5-.22-.7-.1-.2-.24-.37-.41-.5-.17-.13-.39-.19-.64-.19s-.46.06-.63.19c-.17.13-.3.29-.41.5-.1.2-.17.44-.22.7a5.287 5.287 0 0 0 0 1.6ZM36.81 48.43v.95h.03c.19-.4.44-.68.74-.87.3-.18.61-.27.93-.27.4 0 .73.07.99.21.26.14.46.33.61.57s.25.54.31.88c.06.35.09.73.09 1.16v4.2h-1.5V51.4c0-.56-.07-.98-.21-1.26-.14-.28-.39-.42-.75-.42-.41 0-.7.15-.89.46s-.27.8-.27 1.5v3.58h-1.5v-6.83h1.43ZM46.4 45.83v9.43h-1.66v-9.43h1.66ZM49.13 48.43v.95h.03c.19-.4.44-.68.74-.87.3-.18.61-.27.93-.27.4 0 .73.07.99.21.26.14.46.33.61.57s.25.54.31.88c.06.35.09.73.09 1.16v4.2h-1.5V51.4c0-.56-.07-.98-.21-1.26-.14-.28-.39-.42-.75-.42-.41 0-.7.15-.89.46s-.27.8-.27 1.5v3.58h-1.5v-6.83h1.43ZM55.23 53.56c.07.15.15.26.26.36.11.09.23.16.36.2s.28.07.43.07c.11 0 .22-.02.33-.05.12-.03.22-.08.32-.14.09-.07.17-.15.24-.26.06-.11.1-.25.1-.42 0-.28-.15-.49-.45-.63-.3-.14-.72-.28-1.25-.42-.22-.06-.43-.13-.64-.22-.21-.08-.39-.19-.55-.33-.16-.14-.29-.31-.39-.52s-.15-.46-.15-.76c0-.44.07-.8.21-1.08.14-.28.32-.5.54-.67.23-.16.48-.28.76-.34a3.572 3.572 0 0 1 1.73.01c.28.07.53.19.74.36.22.17.4.39.54.67s.23.63.26 1.05h-1.43c-.02-.36-.13-.6-.33-.73s-.43-.19-.7-.19c-.08 0-.18 0-.27.02-.1.01-.19.04-.27.09s-.15.11-.21.19-.08.2-.08.34c0 .17.05.3.15.41s.23.19.39.26.34.12.54.18c.2.05.41.11.62.17.22.06.43.14.64.22.21.09.39.2.55.35.16.15.29.33.39.54.1.22.15.48.15.8 0 .45-.07.83-.22 1.13-.14.3-.33.55-.57.73s-.5.31-.8.39c-.3.07-.6.11-.91.11s-.63-.04-.93-.12c-.3-.08-.57-.21-.81-.4-.24-.18-.43-.43-.58-.73-.15-.3-.23-.68-.25-1.14h1.43c0 .2.03.38.1.52ZM62.64 48.43v1.25h-1.1v3.38c0 .32.04.53.13.63.08.11.25.16.51.16.08 0 .17 0 .24-.01s.15-.02.22-.04v1.45c-.13.03-.27.04-.42.05s-.31.01-.45.01c-.23 0-.45-.02-.66-.06-.21-.04-.39-.12-.55-.23-.16-.11-.28-.28-.38-.49-.09-.21-.14-.49-.14-.83v-4.03h-.91v-1.25h.91v-2.05h1.5v2.05h1.1ZM63.4 47.37v-1.54h1.5v1.54h-1.5Zm1.5 1.06v6.83h-1.5v-6.83h1.5ZM69.08 48.43v1.25h-1.1v3.38c0 .32.04.53.13.63.08.11.25.16.51.16.08 0 .17 0 .24-.01s.15-.02.22-.04v1.45c-.13.03-.27.04-.42.05s-.31.01-.45.01c-.23 0-.45-.02-.66-.06-.21-.04-.39-.12-.55-.23-.16-.11-.28-.28-.38-.49-.09-.21-.14-.49-.14-.83v-4.03h-.91v-1.25h.91v-2.05h1.5v2.05h1.1ZM73.49 55.26v-.95h-.03c-.19.4-.44.68-.74.86-.3.18-.61.26-.93.26-.4 0-.73-.07-.99-.2s-.46-.32-.61-.56-.25-.54-.31-.88c-.06-.35-.09-.73-.09-1.16v-4.2h1.5v3.86c0 .56.07.98.21 1.26.14.28.39.42.75.42.41 0 .7-.15.89-.46s.27-.8.27-1.5v-3.58h1.5v6.83h-1.43ZM79.06 48.43v1.25h-1.1v3.38c0 .32.04.53.13.63.08.11.25.16.51.16.08 0 .17 0 .24-.01s.15-.02.22-.04v1.45c-.13.03-.27.04-.42.05s-.31.01-.45.01c-.23 0-.45-.02-.66-.06-.21-.04-.39-.12-.55-.23-.16-.11-.28-.28-.38-.49-.09-.21-.14-.49-.14-.83v-4.03h-.91v-1.25h.91v-2.05h1.5v2.05h1.1ZM81.39 53.62c.23.27.55.41.97.41.3 0 .56-.09.78-.28s.35-.39.4-.6h1.32c-.21.82-.54 1.4-.97 1.76s-.96.53-1.58.53c-.43 0-.82-.09-1.16-.26s-.64-.42-.88-.73c-.24-.32-.42-.7-.55-1.14-.13-.44-.2-.92-.2-1.45s.07-.99.2-1.43c.13-.44.32-.82.57-1.14.25-.32.54-.58.88-.76s.72-.28 1.14-.28c.46 0 .87.11 1.21.34.34.22.63.53.85.9.22.38.38.81.48 1.29.1.48.13.99.11 1.52h-3.94c.02.61.14 1.05.37 1.32Zm1.7-3.59c-.18-.25-.45-.37-.82-.37-.24 0-.44.05-.6.15-.16.1-.29.23-.38.38s-.16.31-.2.48c-.04.17-.06.32-.07.45h2.44c-.07-.47-.2-.84-.38-1.08ZM15.46 64.17c.13-.44.32-.82.57-1.14.25-.31.54-.55.89-.73.34-.17.73-.26 1.16-.26s.82.09 1.17.26.65.41.89.73c.25.31.44.69.57 1.14.13.45.2.94.2 1.49s-.07 1.04-.2 1.48-.32.82-.57 1.13-.54.55-.89.72-.74.25-1.17.25-.82-.08-1.16-.25c-.35-.17-.64-.41-.89-.72s-.44-.69-.57-1.13-.2-.93-.2-1.48.07-1.04.2-1.49Zm1.36 2.29c.04.26.11.49.22.7s.24.37.41.5c.17.12.38.19.63.19s.47-.06.64-.19c.17-.12.31-.29.41-.5s.17-.44.22-.7a5.287 5.287 0 0 0 0-1.6c-.04-.26-.11-.5-.22-.7-.1-.2-.24-.37-.41-.5-.17-.13-.39-.19-.64-.19s-.46.06-.63.19c-.17.13-.3.29-.41.5-.1.2-.17.44-.22.7a5.287 5.287 0 0 0 0 1.6ZM21.31 63.49v-1.25h.9v-.53c0-.61.15-1.11.45-1.49.3-.39.76-.58 1.37-.58.13 0 .27 0 .4.02s.26.02.39.03v1.4c-.18-.03-.36-.04-.55-.04-.2 0-.35.06-.44.18-.09.12-.13.32-.13.6v.41h1.04v1.25H23.7v5.57h-1.5v-5.57h-.9ZM27.9 61.38v-1.74h6.18v1.74h-2.26v7.68h-1.66v-7.68H27.9ZM35.22 67.42c.23.27.55.41.97.41.3 0 .56-.09.78-.28s.35-.39.4-.6h1.32c-.21.82-.54 1.4-.97 1.76s-.96.53-1.58.53c-.43 0-.82-.09-1.16-.26s-.64-.42-.88-.73c-.24-.32-.42-.7-.55-1.14-.13-.44-.2-.92-.2-1.45s.07-.99.2-1.43c.13-.44.32-.82.57-1.14.25-.32.54-.58.88-.76s.72-.28 1.14-.28c.46 0 .87.11 1.21.34.34.22.63.53.85.9.22.38.38.81.48 1.29.1.48.13.99.11 1.52h-3.94c.02.61.14 1.05.37 1.32Zm1.7-3.59c-.18-.25-.45-.37-.82-.37-.24 0-.44.05-.6.15-.16.1-.29.23-.38.38s-.16.31-.2.48c-.04.17-.06.32-.07.45h2.44c-.07-.47-.2-.84-.38-1.08ZM42.29 63.46c-.24 0-.44.07-.6.21-.16.14-.29.31-.4.53-.1.22-.17.45-.22.71s-.06.52-.06.77.02.5.06.75c.04.26.11.49.21.69s.22.38.39.51c.16.13.36.2.59.2.36 0 .64-.13.83-.38s.32-.59.36-1.01h1.45c-.1.91-.38 1.6-.85 2.07-.46.47-1.06.71-1.79.71-.41 0-.78-.09-1.12-.26a2.51 2.51 0 0 1-.87-.72c-.24-.31-.43-.68-.56-1.1s-.2-.9-.2-1.41.06-1.02.19-1.47c.12-.45.3-.84.54-1.17.24-.33.53-.59.88-.77.34-.18.74-.28 1.18-.28.32 0 .64.05.93.16.3.11.57.27.8.48s.43.48.58.81c.15.32.23.7.25 1.14h-1.47c-.1-.78-.47-1.17-1.11-1.17ZM47.24 59.63v3.55h.03c.19-.4.43-.68.73-.87.3-.18.58-.27.87-.27.4 0 .73.07.99.21.26.14.46.33.61.57s.25.54.31.88c.06.35.09.73.09 1.16v4.2h-1.5V65.2c0-.56-.07-.98-.21-1.26-.14-.28-.39-.42-.75-.42-.41 0-.7.15-.89.46s-.27.8-.27 1.5v3.58h-1.5v-9.43h1.5ZM53.43 62.23v.95h.03c.19-.4.44-.68.74-.87.3-.18.61-.27.93-.27.4 0 .73.07.99.21.26.14.46.33.61.57s.25.54.31.88c.06.35.09.73.09 1.16v4.2h-1.5V65.2c0-.56-.07-.98-.21-1.26-.14-.28-.39-.42-.75-.42-.41 0-.7.15-.89.46s-.27.8-.27 1.5v3.58h-1.5v-6.83h1.43ZM58.3 64.17c.13-.44.32-.82.57-1.14.25-.31.54-.55.89-.73.34-.17.73-.26 1.16-.26s.82.09 1.17.26.65.41.89.73c.25.31.44.69.57 1.14.13.45.2.94.2 1.49s-.07 1.04-.2 1.48-.32.82-.57 1.13-.54.55-.89.72-.74.25-1.17.25-.82-.08-1.16-.25c-.35-.17-.64-.41-.89-.72s-.44-.69-.57-1.13-.2-.93-.2-1.48.07-1.04.2-1.49Zm1.36 2.29c.04.26.11.49.22.7s.24.37.41.5c.17.12.38.19.63.19s.47-.06.64-.19c.17-.12.31-.29.41-.5s.17-.44.22-.7a5.287 5.287 0 0 0 0-1.6c-.04-.26-.11-.5-.22-.7-.1-.2-.24-.37-.41-.5-.17-.13-.39-.19-.64-.19s-.46.06-.63.19c-.17.13-.3.29-.41.5-.1.2-.17.44-.22.7a5.287 5.287 0 0 0 0 1.6ZM66.27 59.63v9.43h-1.5v-9.43h1.5ZM67.48 64.17c.13-.44.32-.82.57-1.14.25-.31.54-.55.89-.73.34-.17.73-.26 1.16-.26s.82.09 1.17.26.65.41.89.73c.25.31.44.69.57 1.14.13.45.2.94.2 1.49s-.07 1.04-.2 1.48-.32.82-.57 1.13-.54.55-.89.72-.74.25-1.17.25-.82-.08-1.16-.25c-.35-.17-.64-.41-.89-.72s-.44-.69-.57-1.13-.2-.93-.2-1.48.07-1.04.2-1.49Zm1.36 2.29c.04.26.11.49.22.7s.24.37.41.5c.17.12.38.19.63.19s.47-.06.64-.19c.17-.12.31-.29.41-.5s.17-.44.22-.7a5.287 5.287 0 0 0 0-1.6c-.04-.26-.11-.5-.22-.7-.1-.2-.24-.37-.41-.5-.17-.13-.39-.19-.64-.19s-.46.06-.63.19c-.17.13-.3.29-.41.5-.1.2-.17.44-.22.7a5.287 5.287 0 0 0 0 1.6ZM79.07 69.56a2.403 2.403 0 0 1-1.25 1.75c-.37.21-.87.32-1.5.32-.27 0-.54-.04-.82-.13a2.197 2.197 0 0 1-1.33-1.07 2.34 2.34 0 0 1-.26-1h1.49c.07.35.21.6.41.73.2.14.44.2.71.2.42 0 .73-.16.92-.48.19-.32.29-.72.28-1.2v-.9h-.02c-.16.36-.39.63-.69.8-.3.17-.61.26-.95.26-.41 0-.76-.09-1.06-.27s-.54-.43-.73-.74-.33-.68-.42-1.1c-.09-.42-.13-.86-.13-1.33 0-.44.05-.87.15-1.27s.25-.77.45-1.08.44-.56.73-.75c.29-.18.63-.28 1.01-.28.36 0 .67.08.95.25s.5.45.68.84h.02v-.91h1.43v6.39c0 .27-.03.58-.09.94Zm-2.05-2.27c.16-.11.3-.25.4-.42.11-.18.18-.38.24-.6.05-.22.08-.46.08-.71 0-.28-.02-.55-.06-.8-.04-.25-.11-.47-.21-.67s-.23-.35-.39-.46-.37-.17-.61-.17c-.21 0-.39.05-.54.16s-.28.25-.38.43c-.1.18-.18.39-.22.62-.05.23-.07.48-.07.73s.02.49.06.73.11.46.2.65c.1.19.22.35.38.48s.35.18.58.18c.21 0 .4-.05.56-.16ZM82.38 71.09c-.29.24-.69.36-1.2.36-.15 0-.31 0-.46-.02-.15-.01-.3-.03-.46-.05v-1.54c.14.02.29.04.43.05s.3.02.44.01c.2-.03.34-.12.44-.29.1-.17.14-.35.14-.55 0-.15-.02-.29-.06-.42l-1.91-6.4h1.6l1.24 4.67h.02l1.19-4.67h1.55l-2.28 7.67c-.16.55-.39.95-.68 1.19Z"/></svg>